<svg width="73" height="26" viewBox="0 0 73 26" fill="none" xmlns="http://www.w3.org/2000/svg">
<path d="M12.6802 2.15257C6.50242 2.15257 2.0995 7.01806 2.0995 12.9999C2.0995 18.9817 6.84612 23.8472 12.6802 23.8472C13.2925 23.8472 13.9965 23.8157 14.7119 23.7407V9.88521H16.8114V25.5716C15.5157 25.8732 13.6972 26 12.4937 26C6.15084 26 0 21.3565 0 13.0003C0 3.80787 6.82982 0.00052923 12.8458 0.00052923C14.034 0.00052923 15.5256 0.0772398 16.8118 0.352906V2.62636C15.4962 2.27931 13.9049 2.15257 12.6802 2.15257ZM29.1005 0.428487H31.2V25.5713H29.1005V5.19664L26.3918 10.6853H24.0389L21.3302 5.19664V25.5713H19.2307V0.428487H21.3302L25.2153 8.30142L29.1005 0.428487ZM37.6579 0.438364C40.4965 0.612308 42.7563 3.14481 42.7563 6.23307C42.7563 9.43375 40.3293 12.0375 37.3461 12.0375H36.0421V25.5706H33.9426V0.427769H37.658L37.6579 0.438364ZM37.3461 9.88578C39.1715 9.88571 40.6566 8.24745 40.6566 6.2336C40.6566 4.21975 39.1716 2.58143 37.3461 2.58143H36.0421V9.88578H37.3461ZM72.9991 9.51313C72.9991 13.3546 70.7663 16.6713 67.5613 18.1716C67.6135 18.2153 67.6634 18.2588 67.7107 18.3018C68.6802 19.1811 69.2363 20.3945 69.2363 21.6174C69.2363 22.8402 68.7004 23.9504 67.7275 24.7433C66.719 25.5652 65.2777 25.9996 63.5594 25.9996C60.3611 25.9996 57.7344 25.1211 55.7517 23.3884C54.1287 21.97 52.9053 19.975 52.0117 17.2891C50.4838 12.6977 49.4689 10.6856 46.1642 10.6852L46.1635 25.5715H44.064V0.428721H47.7794C50.4187 0.428721 52.566 2.72938 52.566 5.55714C52.566 7.36823 51.6852 8.963 50.3586 9.8756C50.756 10.1934 51.1218 10.5677 51.4568 11.0007C52.5614 12.4284 53.2616 14.3787 53.999 16.5943C55.6683 21.6103 58.6171 23.8473 63.5602 23.8473C64.799 23.8473 65.7885 23.5746 66.4218 23.0585C66.8899 22.6769 67.1374 22.1786 67.1374 21.6175C67.1374 20.3436 65.8595 19.0259 63.7208 19.0259C58.6046 19.0259 54.4417 14.7585 54.4417 9.51296C54.4417 4.26745 58.6043 0 63.7208 0C68.8374 0 72.9991 4.26762 72.9991 9.51313ZM46.1635 8.53256C46.1637 8.53256 47.7793 8.53259 47.7793 8.53259C49.2609 8.53259 50.4662 7.19751 50.4662 5.55667C50.4662 3.91583 49.261 2.58093 47.7796 2.58075H46.1635V8.53256ZM63.7209 16.873C67.6795 16.873 70.9 13.5712 70.9 9.51295C70.9 5.45472 67.6793 2.15292 63.7209 2.15292C59.7624 2.15292 56.5417 5.45472 56.5417 9.51295C56.5417 13.5712 59.7624 16.873 63.7209 16.873Z" fill="black"/>
</svg>
