<svg width="335" height="34" viewBox="0 0 335 34" fill="none" xmlns="http://www.w3.org/2000/svg">
<path d="M49.031 16.556C48.4253 15.8034 47.6268 15.4271 46.6356 15.4271C46.2868 15.4271 45.9472 15.5097 45.6168 15.6749C45.2864 15.8401 45.1212 16.1247 45.1212 16.5285C45.1212 16.8589 45.2864 17.1067 45.6168 17.2719C45.9656 17.4187 46.397 17.5564 46.9109 17.6849C47.4432 17.795 48.0031 17.9235 48.5905 18.0704C49.1962 18.1988 49.756 18.4099 50.27 18.7036C50.8023 18.9973 51.2337 19.4011 51.5641 19.9151C51.9128 20.4107 52.0872 21.0807 52.0872 21.925C52.0872 22.7878 51.8945 23.5036 51.509 24.0727C51.1419 24.6233 50.6646 25.073 50.0773 25.4218C49.4899 25.7522 48.8291 25.9816 48.0948 26.1101C47.3606 26.257 46.6356 26.3304 45.9197 26.3304C44.9836 26.3304 44.0382 26.2019 43.0838 25.9449C42.1293 25.6696 41.3216 25.1924 40.6608 24.5132L43.1664 21.7323C43.5518 22.2096 43.974 22.5767 44.4329 22.8336C44.9101 23.0723 45.4608 23.1916 46.0849 23.1916C46.5622 23.1916 46.9935 23.1273 47.379 22.9988C47.7644 22.852 47.9572 22.595 47.9572 22.2279C47.9572 21.8792 47.7828 21.6222 47.434 21.457C47.1036 21.2734 46.6723 21.1266 46.14 21.0164C45.626 20.8879 45.0662 20.7595 44.4604 20.631C43.873 20.4841 43.3132 20.273 42.7809 19.9977C42.2669 19.7224 41.8356 19.3369 41.4868 18.8413C41.1564 18.3273 40.9912 17.6482 40.9912 16.8038C40.9912 16.0145 41.1472 15.3354 41.4593 14.7663C41.7897 14.1973 42.2119 13.7292 42.7258 13.3621C43.2581 12.995 43.8639 12.7289 44.543 12.5637C45.2222 12.3801 45.9105 12.2883 46.608 12.2883C47.4891 12.2883 48.3794 12.4168 49.2788 12.6738C50.1782 12.9308 50.94 13.3897 51.5641 14.0505L49.031 16.556ZM53.571 19.3094C53.571 18.2447 53.7637 17.2811 54.1492 16.4183C54.5347 15.5556 55.0578 14.8214 55.7186 14.2157C56.3978 13.5916 57.1871 13.1143 58.0865 12.7839C59.0043 12.4535 59.9771 12.2883 61.005 12.2883C62.033 12.2883 62.9966 12.4535 63.8961 12.7839C64.8139 13.1143 65.6031 13.5916 66.2639 14.2157C66.9431 14.8214 67.4754 15.5556 67.8609 16.4183C68.2464 17.2811 68.4391 18.2447 68.4391 19.3094C68.4391 20.374 68.2464 21.3377 67.8609 22.2004C67.4754 23.0631 66.9431 23.8065 66.2639 24.4306C65.6031 25.0363 64.8139 25.5044 63.8961 25.8348C62.9966 26.1652 62.033 26.3304 61.005 26.3304C59.9771 26.3304 59.0043 26.1652 58.0865 25.8348C57.1871 25.5044 56.3978 25.0363 55.7186 24.4306C55.0578 23.8065 54.5347 23.0631 54.1492 22.2004C53.7637 21.3377 53.571 20.374 53.571 19.3094ZM57.701 19.3094C57.701 20.3189 57.9855 21.1357 58.5546 21.7598C59.1419 22.3839 59.9588 22.696 61.005 22.696C62.0513 22.696 62.859 22.3839 63.428 21.7598C64.0154 21.1357 64.3091 20.3189 64.3091 19.3094C64.3091 18.2998 64.0154 17.483 63.428 16.8589C62.859 16.2348 62.0513 15.9227 61.005 15.9227C59.9588 15.9227 59.1419 16.2348 58.5546 16.8589C57.9855 17.483 57.701 18.2998 57.701 19.3094ZM72.1658 15.9227H69.44V12.6187H72.1658V10.2508C72.1658 9.51661 72.23 8.82827 72.3585 8.18582C72.487 7.52502 72.7348 6.94682 73.1019 6.45121C73.469 5.95561 73.9922 5.57014 74.6713 5.29481C75.3689 5.00112 76.2775 4.85427 77.3972 4.85427C77.8193 4.85427 78.2323 4.87263 78.6362 4.90934C79.04 4.94605 79.4346 5.01029 79.8201 5.10207L79.6274 8.59883C79.3888 8.50705 79.1685 8.4428 78.9666 8.40609C78.7647 8.35103 78.5352 8.32349 78.2782 8.32349C77.6174 8.32349 77.1218 8.47034 76.7914 8.76403C76.461 9.03936 76.2958 9.61757 76.2958 10.4986V12.6187H79.352V15.9227H76.2958V26H72.1658V15.9227ZM89.9006 15.9227H86.2662V20.3832C86.2662 20.7503 86.2845 21.0899 86.3212 21.4019C86.358 21.6956 86.4406 21.9526 86.569 22.1728C86.6975 22.3931 86.8903 22.5675 87.1472 22.696C87.4226 22.8061 87.7805 22.8612 88.2211 22.8612C88.4413 22.8612 88.7258 22.8428 89.0746 22.8061C89.4417 22.751 89.717 22.6409 89.9006 22.4757V25.9174C89.4417 26.0826 88.9645 26.1927 88.4689 26.2478C87.9733 26.3029 87.4868 26.3304 87.0096 26.3304C86.3121 26.3304 85.6696 26.257 85.0822 26.1101C84.4949 25.9633 83.9809 25.7338 83.5404 25.4218C83.0998 25.0914 82.7511 24.6692 82.4941 24.1553C82.2555 23.6413 82.1361 23.0172 82.1361 22.283V15.9227H79.4929V12.6187H82.1361V8.65389H86.2662V12.6187H89.9006V15.9227ZM90.2648 12.6187H94.6701L97.3959 21.0164H97.451L99.7363 12.6187H104.252L106.73 21.0164H106.785L109.29 12.6187H113.476L108.712 26H104.637L101.856 17.1067H101.801L99.3233 26H95.1657L90.2648 12.6187ZM123.057 24.3205H123.002C122.543 25.0363 121.929 25.5503 121.158 25.8623C120.405 26.1744 119.607 26.3304 118.762 26.3304C118.138 26.3304 117.532 26.2386 116.945 26.0551C116.376 25.8899 115.871 25.6329 115.431 25.2841C114.99 24.9354 114.641 24.504 114.384 23.9901C114.127 23.4761 113.999 22.8795 113.999 22.2004C113.999 21.4294 114.137 20.7778 114.412 20.2455C114.706 19.7132 115.091 19.2726 115.568 18.9239C116.064 18.5751 116.624 18.309 117.248 18.1254C117.872 17.9235 118.514 17.7767 119.175 17.6849C119.854 17.5931 120.524 17.538 121.185 17.5197C121.864 17.5013 122.488 17.4921 123.057 17.4921C123.057 16.7579 122.791 16.1797 122.259 15.7575C121.745 15.317 121.13 15.0967 120.414 15.0967C119.735 15.0967 119.111 15.2436 118.542 15.5373C117.991 15.8126 117.496 16.1981 117.055 16.6937L114.852 14.4359C115.623 13.7201 116.523 13.1877 117.551 12.839C118.579 12.4719 119.643 12.2883 120.745 12.2883C121.956 12.2883 122.947 12.4443 123.718 12.7564C124.507 13.0501 125.132 13.4906 125.59 14.078C126.068 14.6654 126.398 15.3904 126.582 16.2531C126.765 17.0975 126.857 18.0795 126.857 19.1992V26H123.057V24.3205ZM122.039 20.1354C121.727 20.1354 121.332 20.1537 120.855 20.1904C120.396 20.2088 119.946 20.2822 119.506 20.4107C119.083 20.5392 118.716 20.7319 118.404 20.9889C118.111 21.2459 117.964 21.6038 117.964 22.0627C117.964 22.5583 118.175 22.9254 118.597 23.164C119.019 23.4027 119.46 23.522 119.919 23.522C120.322 23.522 120.708 23.4669 121.075 23.3568C121.46 23.2466 121.8 23.0906 122.094 22.8887C122.387 22.6868 122.617 22.4298 122.782 22.1178C122.966 21.8057 123.057 21.4386 123.057 21.0164V20.1354H122.039ZM129.311 12.6187H133.441V14.7663H133.496C133.936 13.9403 134.459 13.3254 135.065 12.9216C135.671 12.4994 136.433 12.2883 137.35 12.2883C137.589 12.2883 137.828 12.2975 138.066 12.3158C138.305 12.3342 138.525 12.3709 138.727 12.426V16.1981C138.433 16.1063 138.14 16.042 137.846 16.0053C137.571 15.9503 137.277 15.9227 136.965 15.9227C136.176 15.9227 135.551 16.0329 135.093 16.2531C134.634 16.4734 134.276 16.7855 134.019 17.1893C133.78 17.5747 133.624 18.0428 133.551 18.5935C133.477 19.1442 133.441 19.7499 133.441 20.4107V26H129.311V12.6187ZM152.567 23.6872C151.906 24.5315 151.071 25.1832 150.061 25.6421C149.052 26.101 148.005 26.3304 146.922 26.3304C145.894 26.3304 144.921 26.1652 144.004 25.8348C143.104 25.5044 142.315 25.0363 141.636 24.4306C140.975 23.8065 140.452 23.0631 140.066 22.2004C139.681 21.3377 139.488 20.374 139.488 19.3094C139.488 18.2447 139.681 17.2811 140.066 16.4183C140.452 15.5556 140.975 14.8214 141.636 14.2157C142.315 13.5916 143.104 13.1143 144.004 12.7839C144.921 12.4535 145.894 12.2883 146.922 12.2883C147.877 12.2883 148.739 12.4535 149.51 12.7839C150.3 13.1143 150.961 13.5916 151.493 14.2157C152.043 14.8214 152.466 15.5556 152.759 16.4183C153.053 17.2811 153.2 18.2447 153.2 19.3094V20.6034H143.618C143.783 21.3927 144.141 22.026 144.692 22.5032C145.243 22.9621 145.922 23.1916 146.73 23.1916C147.409 23.1916 147.978 23.0447 148.437 22.751C148.914 22.439 149.327 22.0444 149.676 21.5671L152.567 23.6872ZM149.07 17.795C149.088 17.0975 148.859 16.5009 148.382 16.0053C147.904 15.5097 147.289 15.2619 146.537 15.2619C146.078 15.2619 145.674 15.3354 145.325 15.4822C144.977 15.629 144.674 15.8218 144.417 16.0604C144.178 16.2807 143.985 16.5468 143.839 16.8589C143.71 17.1526 143.637 17.4646 143.618 17.795H149.07ZM169.616 24.8711C169.616 27.4042 168.973 29.3224 167.689 30.6256C166.422 31.9472 164.485 32.608 161.879 32.608C160.686 32.608 159.511 32.4704 158.355 32.195C157.198 31.9381 156.134 31.4241 155.161 30.6532L157.446 27.239C158.089 27.7713 158.759 28.1935 159.456 28.5055C160.172 28.8176 160.952 28.9736 161.796 28.9736C163.063 28.9736 163.99 28.6616 164.577 28.0375C165.183 27.4317 165.486 26.6516 165.486 25.6971V24.4031H165.431C164.954 25.0455 164.357 25.5044 163.641 25.7797C162.944 26.0367 162.283 26.1652 161.659 26.1652C160.668 26.1652 159.768 26 158.96 25.6696C158.153 25.3208 157.455 24.8436 156.868 24.2379C156.299 23.6138 155.858 22.8795 155.546 22.0352C155.234 21.1908 155.078 20.2639 155.078 19.2543C155.078 18.3732 155.216 17.5105 155.491 16.6661C155.785 15.8218 156.189 15.0784 156.703 14.4359C157.235 13.7935 157.877 13.2795 158.63 12.8941C159.383 12.4902 160.236 12.2883 161.191 12.2883C161.778 12.2883 162.31 12.3526 162.788 12.4811C163.283 12.6095 163.724 12.7747 164.109 12.9767C164.495 13.1786 164.825 13.408 165.1 13.665C165.376 13.9036 165.596 14.1422 165.761 14.3809H165.816V12.6187H169.616V24.8711ZM159.208 19.2268C159.208 19.6673 159.291 20.0895 159.456 20.4933C159.621 20.8788 159.851 21.2275 160.144 21.5396C160.456 21.8333 160.805 22.0719 161.191 22.2554C161.594 22.439 162.035 22.5308 162.512 22.5308C162.971 22.5308 163.403 22.439 163.806 22.2554C164.21 22.0719 164.559 21.8333 164.853 21.5396C165.165 21.2275 165.403 20.8788 165.568 20.4933C165.734 20.0895 165.816 19.6673 165.816 19.2268C165.816 18.7862 165.734 18.3732 165.568 17.9878C165.403 17.5839 165.165 17.2352 164.853 16.9415C164.559 16.6294 164.21 16.3816 163.806 16.1981C163.403 16.0145 162.971 15.9227 162.512 15.9227C162.035 15.9227 161.594 16.0145 161.191 16.1981C160.805 16.3816 160.456 16.6294 160.144 16.9415C159.851 17.2352 159.621 17.5839 159.456 17.9878C159.291 18.3732 159.208 18.7862 159.208 19.2268ZM185.444 23.6872C184.784 24.5315 183.948 25.1832 182.939 25.6421C181.929 26.101 180.883 26.3304 179.8 26.3304C178.772 26.3304 177.799 26.1652 176.881 25.8348C175.982 25.5044 175.193 25.0363 174.514 24.4306C173.853 23.8065 173.33 23.0631 172.944 22.2004C172.559 21.3377 172.366 20.374 172.366 19.3094C172.366 18.2447 172.559 17.2811 172.944 16.4183C173.33 15.5556 173.853 14.8214 174.514 14.2157C175.193 13.5916 175.982 13.1143 176.881 12.7839C177.799 12.4535 178.772 12.2883 179.8 12.2883C180.755 12.2883 181.617 12.4535 182.388 12.7839C183.177 13.1143 183.838 13.5916 184.371 14.2157C184.921 14.8214 185.343 15.5556 185.637 16.4183C185.931 17.2811 186.078 18.2447 186.078 19.3094V20.6034H176.496C176.661 21.3927 177.019 22.026 177.57 22.5032C178.121 22.9621 178.8 23.1916 179.607 23.1916C180.286 23.1916 180.856 23.0447 181.314 22.751C181.792 22.439 182.205 22.0444 182.553 21.5671L185.444 23.6872ZM181.948 17.795C181.966 17.0975 181.737 16.5009 181.259 16.0053C180.782 15.5097 180.167 15.2619 179.415 15.2619C178.956 15.2619 178.552 15.3354 178.203 15.4822C177.854 15.629 177.551 15.8218 177.295 16.0604C177.056 16.2807 176.863 16.5468 176.716 16.8589C176.588 17.1526 176.514 17.4646 176.496 17.795H181.948ZM196.023 16.556C195.418 15.8034 194.619 15.4271 193.628 15.4271C193.279 15.4271 192.94 15.5097 192.609 15.6749C192.279 15.8401 192.114 16.1247 192.114 16.5285C192.114 16.8589 192.279 17.1067 192.609 17.2719C192.958 17.4187 193.389 17.5564 193.903 17.6849C194.436 17.795 194.995 17.9235 195.583 18.0704C196.189 18.1988 196.748 18.4099 197.262 18.7036C197.795 18.9973 198.226 19.4011 198.556 19.9151C198.905 20.4107 199.08 21.0807 199.08 21.925C199.08 22.7878 198.887 23.5036 198.501 24.0727C198.134 24.6233 197.657 25.073 197.07 25.4218C196.482 25.7522 195.821 25.9816 195.087 26.1101C194.353 26.257 193.628 26.3304 192.912 26.3304C191.976 26.3304 191.031 26.2019 190.076 25.9449C189.122 25.6696 188.314 25.1924 187.653 24.5132L190.159 21.7323C190.544 22.2096 190.966 22.5767 191.425 22.8336C191.902 23.0723 192.453 23.1916 193.077 23.1916C193.554 23.1916 193.986 23.1273 194.371 22.9988C194.757 22.852 194.95 22.595 194.95 22.2279C194.95 21.8792 194.775 21.6222 194.426 21.457C194.096 21.2734 193.665 21.1266 193.132 21.0164C192.618 20.8879 192.058 20.7595 191.453 20.631C190.865 20.4841 190.306 20.273 189.773 19.9977C189.259 19.7224 188.828 19.3369 188.479 18.8413C188.149 18.3273 187.984 17.6482 187.984 16.8038C187.984 16.0145 188.14 15.3354 188.452 14.7663C188.782 14.1973 189.204 13.7292 189.718 13.3621C190.25 12.995 190.856 12.7289 191.535 12.5637C192.215 12.3801 192.903 12.2883 193.6 12.2883C194.481 12.2883 195.372 12.4168 196.271 12.6738C197.171 12.9308 197.932 13.3897 198.556 14.0505L196.023 16.556ZM210.173 15.9227H206.538V20.3832C206.538 20.7503 206.556 21.0899 206.593 21.4019C206.63 21.6956 206.712 21.9526 206.841 22.1728C206.969 22.3931 207.162 22.5675 207.419 22.696C207.695 22.8061 208.052 22.8612 208.493 22.8612C208.713 22.8612 208.998 22.8428 209.347 22.8061C209.714 22.751 209.989 22.6409 210.173 22.4757V25.9174C209.714 26.0826 209.236 26.1927 208.741 26.2478C208.245 26.3029 207.759 26.3304 207.282 26.3304C206.584 26.3304 205.942 26.257 205.354 26.1101C204.767 25.9633 204.253 25.7338 203.812 25.4218C203.372 25.0914 203.023 24.6692 202.766 24.1553C202.527 23.6413 202.408 23.0172 202.408 22.283V15.9227H199.765V12.6187H202.408V8.65389H206.538V12.6187H210.173V15.9227ZM212.189 12.6187H216.319V26H212.189V12.6187ZM211.858 8.40609C211.858 7.74529 212.088 7.18544 212.547 6.72655C213.024 6.2493 213.593 6.01068 214.254 6.01068C214.915 6.01068 215.474 6.2493 215.933 6.72655C216.411 7.18544 216.649 7.74529 216.649 8.40609C216.649 9.0669 216.411 9.63592 215.933 10.1132C215.474 10.5721 214.915 10.8015 214.254 10.8015C213.593 10.8015 213.024 10.5721 212.547 10.1132C212.088 9.63592 211.858 9.0669 211.858 8.40609ZM218.653 19.3094C218.653 18.2447 218.845 17.2811 219.231 16.4183C219.616 15.5556 220.139 14.8214 220.8 14.2157C221.479 13.5916 222.269 13.1143 223.168 12.7839C224.086 12.4535 225.059 12.2883 226.087 12.2883C227.115 12.2883 228.078 12.4535 228.978 12.7839C229.895 13.1143 230.685 13.5916 231.346 14.2157C232.025 14.8214 232.557 15.5556 232.943 16.4183C233.328 17.2811 233.521 18.2447 233.521 19.3094C233.521 20.374 233.328 21.3377 232.943 22.2004C232.557 23.0631 232.025 23.8065 231.346 24.4306C230.685 25.0363 229.895 25.5044 228.978 25.8348C228.078 26.1652 227.115 26.3304 226.087 26.3304C225.059 26.3304 224.086 26.1652 223.168 25.8348C222.269 25.5044 221.479 25.0363 220.8 24.4306C220.139 23.8065 219.616 23.0631 219.231 22.2004C218.845 21.3377 218.653 20.374 218.653 19.3094ZM222.783 19.3094C222.783 20.3189 223.067 21.1357 223.636 21.7598C224.224 22.3839 225.04 22.696 226.087 22.696C227.133 22.696 227.941 22.3839 228.51 21.7598C229.097 21.1357 229.391 20.3189 229.391 19.3094C229.391 18.2998 229.097 17.483 228.51 16.8589C227.941 16.2348 227.133 15.9227 226.087 15.9227C225.04 15.9227 224.224 16.2348 223.636 16.8589C223.067 17.483 222.783 18.2998 222.783 19.3094ZM235.816 12.6187H239.78V14.4359H239.836C239.964 14.1789 240.148 13.922 240.386 13.665C240.625 13.408 240.909 13.1786 241.24 12.9767C241.57 12.7747 241.946 12.6095 242.369 12.4811C242.791 12.3526 243.25 12.2883 243.745 12.2883C244.792 12.2883 245.636 12.4535 246.278 12.7839C246.921 13.096 247.416 13.5365 247.765 14.1055C248.132 14.6746 248.38 15.3445 248.509 16.1155C248.637 16.8864 248.701 17.7216 248.701 18.621V26H244.571V19.447C244.571 19.0616 244.553 18.6669 244.516 18.2631C244.498 17.8409 244.415 17.4554 244.268 17.1067C244.14 16.7579 243.929 16.4734 243.635 16.2531C243.36 16.0329 242.956 15.9227 242.424 15.9227C241.891 15.9227 241.46 16.0237 241.13 16.2256C240.799 16.4092 240.542 16.6661 240.359 16.9965C240.194 17.3086 240.083 17.6665 240.028 18.0704C239.973 18.4742 239.946 18.8964 239.946 19.3369V26H235.816V12.6187ZM259.886 24.3205H259.831C259.372 25.0363 258.757 25.5503 257.986 25.8623C257.234 26.1744 256.435 26.3304 255.591 26.3304C254.967 26.3304 254.361 26.2386 253.774 26.0551C253.205 25.8899 252.7 25.6329 252.259 25.2841C251.819 24.9354 251.47 24.504 251.213 23.9901C250.956 23.4761 250.827 22.8795 250.827 22.2004C250.827 21.4294 250.965 20.7778 251.24 20.2455C251.534 19.7132 251.92 19.2726 252.397 18.9239C252.892 18.5751 253.452 18.309 254.076 18.1254C254.7 17.9235 255.343 17.7767 256.004 17.6849C256.683 17.5931 257.353 17.538 258.014 17.5197C258.693 17.5013 259.317 17.4921 259.886 17.4921C259.886 16.7579 259.62 16.1797 259.087 15.7575C258.574 15.317 257.959 15.0967 257.243 15.0967C256.564 15.0967 255.94 15.2436 255.37 15.5373C254.82 15.8126 254.324 16.1981 253.884 16.6937L251.681 14.4359C252.452 13.7201 253.351 13.1877 254.379 12.839C255.407 12.4719 256.472 12.2883 257.573 12.2883C258.785 12.2883 259.776 12.4443 260.547 12.7564C261.336 13.0501 261.96 13.4906 262.419 14.078C262.896 14.6654 263.227 15.3904 263.41 16.2531C263.594 17.0975 263.686 18.0795 263.686 19.1992V26H259.886V24.3205ZM258.867 20.1354C258.555 20.1354 258.161 20.1537 257.683 20.1904C257.224 20.2088 256.775 20.2822 256.334 20.4107C255.912 20.5392 255.545 20.7319 255.233 20.9889C254.939 21.2459 254.792 21.6038 254.792 22.0627C254.792 22.5583 255.003 22.9254 255.426 23.164C255.848 23.4027 256.288 23.522 256.747 23.522C257.151 23.522 257.536 23.4669 257.904 23.3568C258.289 23.2466 258.629 23.0906 258.922 22.8887C259.216 22.6868 259.445 22.4298 259.611 22.1178C259.794 21.8057 259.886 21.4386 259.886 21.0164V20.1354H258.867ZM266.194 5.18467H270.324V26H266.194V5.18467ZM285.819 23.6872C285.158 24.5315 284.323 25.1832 283.314 25.6421C282.304 26.101 281.258 26.3304 280.175 26.3304C279.147 26.3304 278.174 26.1652 277.256 25.8348C276.357 25.5044 275.567 25.0363 274.888 24.4306C274.227 23.8065 273.704 23.0631 273.319 22.2004C272.933 21.3377 272.741 20.374 272.741 19.3094C272.741 18.2447 272.933 17.2811 273.319 16.4183C273.704 15.5556 274.227 14.8214 274.888 14.2157C275.567 13.5916 276.357 13.1143 277.256 12.7839C278.174 12.4535 279.147 12.2883 280.175 12.2883C281.129 12.2883 281.992 12.4535 282.763 12.7839C283.552 13.1143 284.213 13.5916 284.745 14.2157C285.296 14.8214 285.718 15.5556 286.012 16.4183C286.306 17.2811 286.452 18.2447 286.452 19.3094V20.6034H276.871C277.036 21.3927 277.394 22.026 277.945 22.5032C278.495 22.9621 279.174 23.1916 279.982 23.1916C280.661 23.1916 281.23 23.0447 281.689 22.751C282.166 22.439 282.579 22.0444 282.928 21.5671L285.819 23.6872ZM282.322 17.795C282.341 17.0975 282.111 16.5009 281.634 16.0053C281.157 15.5097 280.542 15.2619 279.789 15.2619C279.33 15.2619 278.927 15.3354 278.578 15.4822C278.229 15.629 277.926 15.8218 277.669 16.0604C277.431 16.2807 277.238 16.5468 277.091 16.8589C276.962 17.1526 276.889 17.4646 276.871 17.795H282.322ZM288.909 23.6321C288.909 23.2834 288.973 22.953 289.102 22.6409C289.23 22.3289 289.404 22.0627 289.625 21.8424C289.863 21.6038 290.139 21.4203 290.451 21.2918C290.763 21.1633 291.093 21.099 291.442 21.099C291.791 21.099 292.121 21.1633 292.433 21.2918C292.745 21.4203 293.011 21.6038 293.232 21.8424C293.47 22.0627 293.654 22.3289 293.782 22.6409C293.911 22.953 293.975 23.2834 293.975 23.6321C293.975 23.9809 293.911 24.3113 293.782 24.6233C293.654 24.9354 293.47 25.2107 293.232 25.4493C293.011 25.6696 292.745 25.844 292.433 25.9725C292.121 26.101 291.791 26.1652 291.442 26.1652C291.093 26.1652 290.763 26.101 290.451 25.9725C290.139 25.844 289.863 25.6696 289.625 25.4493C289.404 25.2107 289.23 24.9354 289.102 24.6233C288.973 24.3113 288.909 23.9809 288.909 23.6321ZM305.894 16.9415C305.692 16.6478 305.408 16.4092 305.041 16.2256C304.674 16.0237 304.279 15.9227 303.857 15.9227C302.81 15.9227 301.994 16.2348 301.406 16.8589C300.837 17.483 300.553 18.2998 300.553 19.3094C300.553 20.3189 300.837 21.1357 301.406 21.7598C301.994 22.3839 302.81 22.696 303.857 22.696C304.316 22.696 304.71 22.595 305.041 22.3931C305.371 22.1912 305.656 21.9526 305.894 21.6772L308.62 24.5407C307.978 25.2015 307.216 25.6696 306.335 25.9449C305.472 26.2019 304.646 26.3304 303.857 26.3304C302.829 26.3304 301.856 26.1652 300.938 25.8348C300.039 25.5044 299.249 25.0363 298.57 24.4306C297.91 23.8065 297.386 23.0631 297.001 22.2004C296.615 21.3377 296.423 20.374 296.423 19.3094C296.423 18.2447 296.615 17.2811 297.001 16.4183C297.386 15.5556 297.91 14.8214 298.57 14.2157C299.249 13.5916 300.039 13.1143 300.938 12.7839C301.856 12.4535 302.829 12.2883 303.857 12.2883C304.646 12.2883 305.472 12.426 306.335 12.7013C307.216 12.9583 307.978 13.4172 308.62 14.078L305.894 16.9415ZM314.111 5.18467V14.4359H314.166C314.258 14.1789 314.414 13.922 314.634 13.665C314.854 13.408 315.12 13.1786 315.432 12.9767C315.745 12.7747 316.112 12.6095 316.534 12.4811C316.956 12.3526 317.415 12.2883 317.91 12.2883C318.957 12.2883 319.801 12.4535 320.444 12.7839C321.086 13.096 321.582 13.5365 321.93 14.1055C322.297 14.6746 322.545 15.3445 322.674 16.1155C322.802 16.8864 322.867 17.7216 322.867 18.621V26H318.736V19.447C318.736 19.0616 318.718 18.6669 318.681 18.2631C318.663 17.8409 318.58 17.4554 318.434 17.1067C318.305 16.7579 318.094 16.4734 317.8 16.2531C317.525 16.0329 317.121 15.9227 316.589 15.9227C316.057 15.9227 315.625 16.0237 315.295 16.2256C314.964 16.4092 314.707 16.6661 314.524 16.9965C314.359 17.3086 314.249 17.6665 314.193 18.0704C314.138 18.4742 314.111 18.8964 314.111 19.3369V26H309.981V5.18467H314.111Z" fill="black"/>
<circle cx="12.5" cy="17.5" r="12.5" fill="url(#paint0_angular_364_2223)"/>
<defs>
<radialGradient id="paint0_angular_364_2223" cx="0" cy="0" r="1" gradientUnits="userSpaceOnUse" gradientTransform="translate(12.5 17.5) rotate(90) scale(12.5)">
<stop/>
<stop offset="1" stop-color="white" stop-opacity="0"/>
</radialGradient>
</defs>
</svg>
